<svg width="24" height="24" viewBox="0 0 24 24" fill="none" xmlns="http://www.w3.org/2000/svg">
<g clip-path="url(#clip0_2_69)">
<path d="M23.5889 7.65905H0.58728L2.37358 3.74388L7.83035 1.5416L12.0147 4.18434L16.1256 1.83523L21.3866 3.23001L23.5889 7.65905Z" fill="#FF9933" stroke="black" stroke-width="0.275285"/>
<path d="M2.20234 13.4584L0.562866 7.75693H23.589L22.3655 12.6509L19.6493 14.8776H4.08652L2.20234 13.4584Z" fill="white" stroke="black" stroke-width="0.0917618"/>
<path d="M19.4535 14.8532H4.01306L12.3328 22.0473L19.4535 14.8532Z" fill="#138808" stroke="black" stroke-width="0.367047"/>
<path d="M10.8891 22.2039C11.1876 22.5024 11.5889 22.6688 12.0098 22.6688C12.4258 22.6688 12.8369 22.4975 13.1305 22.2039L21.925 13.4095C23.261 12.0734 23.9951 10.2969 24 8.41271C24 6.52364 23.2659 4.74713 21.9299 3.41108C20.5938 2.07503 18.8222 1.34093 16.9331 1.34093C15.0783 1.34093 13.3312 2.05056 12.0049 3.34257C10.6737 2.04567 8.9217 1.33115 7.06199 1.33115C5.17781 1.33115 3.4062 2.06524 2.07015 3.3964C0.734095 4.73245 0 6.50896 0 8.39803C0 10.2822 0.738989 12.0587 2.07504 13.3948L10.8891 22.2039ZM2.9217 4.24795C4.02773 3.14191 5.50082 2.53017 7.06688 2.53017C8.63295 2.53017 10.1109 3.14191 11.2219 4.25284L11.584 4.615C11.6966 4.72756 11.8483 4.79118 12.0098 4.79118C12.1664 4.79118 12.323 4.72756 12.4356 4.615L12.7879 4.26263C13.8989 3.1517 15.3719 2.53996 16.9429 2.53996C18.509 2.53996 19.9821 3.1517 21.0881 4.25774C22.199 5.36867 22.8059 6.84175 22.8059 8.40782C22.8059 9.97389 22.1941 11.447 21.0832 12.5579L16.6835 16.9576L12.2839 21.3572C12.1419 21.4992 11.8825 21.4992 11.7357 21.3572L7.33116 16.9527L2.92659 12.5481C1.81566 11.4372 1.20392 9.9641 1.20392 8.39803C1.20392 6.83196 1.81566 5.35888 2.9217 4.24795Z" fill="black"/>
<path d="M12 10.5677C11.7617 10.5677 11.5677 10.7617 11.5677 11C11.5677 11.2384 11.7617 11.4323 12 11.4323C12.2384 11.4323 12.4323 11.2384 12.4323 11C12.4323 10.7617 12.2384 10.5677 12 10.5677ZM12 11.2387C11.8684 11.2387 11.7613 11.1316 11.7613 11C11.7613 10.8684 11.8684 10.7613 12 10.7613C12.1316 10.7613 12.2387 10.8684 12.2387 11C12.2387 11.1316 12.1316 11.2387 12 11.2387Z" fill="#000080"/>
<path d="M12 8.58066C10.666 8.58066 9.58069 9.66598 9.58069 11C9.58069 12.3341 10.666 13.4194 12 13.4194C13.3341 13.4194 14.4194 12.3341 14.4194 11C14.4194 9.66598 13.3341 8.58066 12 8.58066ZM12 13.2258C10.7727 13.2258 9.77425 12.2273 9.77425 11C9.77425 9.7727 10.7727 8.77422 12 8.77422C13.2274 8.77422 14.2258 9.7727 14.2258 11C14.2258 12.2273 13.2274 13.2258 12 13.2258Z" fill="#000080"/>
<path d="M12 8.93549C11.9465 8.93549 11.9032 8.97881 11.9032 9.03226V10.3097C11.9032 10.3631 11.9465 10.4064 12 10.4064C12.0534 10.4064 12.0967 10.3631 12.0967 10.3097V9.03226C12.0967 8.97881 12.0534 8.93549 12 8.93549Z" fill="#000080"/>
<path d="M12 11.5935C11.9465 11.5935 11.9032 11.6369 11.9032 11.6903V12.9677C11.9032 13.0212 11.9465 13.0645 12 13.0645C12.0534 13.0645 12.0967 13.0212 12.0967 12.9677V11.6903C12.0967 11.6369 12.0534 11.5935 12 11.5935Z" fill="#000080"/>
<path d="M13.9678 10.9032H12.6904C12.637 10.9032 12.5936 10.9466 12.5936 11C12.5936 11.0535 12.637 11.0968 12.6904 11.0968H13.9678C14.0213 11.0968 14.0646 11.0535 14.0646 11C14.0646 10.9466 14.0213 10.9032 13.9678 10.9032Z" fill="#000080"/>
<path d="M11.3097 10.9032H10.0323C9.97887 10.9032 9.93555 10.9466 9.93555 11C9.93555 11.0535 9.97887 11.0968 10.0323 11.0968H11.3097C11.3632 11.0968 11.4065 11.0535 11.4065 11C11.4065 10.9466 11.3632 10.9032 11.3097 10.9032Z" fill="#000080"/>
<path d="M13.4534 9.54019C13.4156 9.50239 13.3543 9.50239 13.3165 9.54019L12.4132 10.4435C12.3754 10.4812 12.3754 10.5425 12.4132 10.5803C12.4321 10.5992 12.4569 10.6087 12.4817 10.6087C12.5064 10.6087 12.5312 10.5992 12.5501 10.5803L13.4534 9.67704C13.4912 9.63924 13.4912 9.57797 13.4534 9.54019Z" fill="#000080"/>
<path d="M11.5738 11.4197C11.5361 11.3819 11.4748 11.3819 11.437 11.4197L10.5337 12.323C10.4959 12.3608 10.4959 12.4221 10.5337 12.4598C10.5526 12.4787 10.5774 12.4882 10.6021 12.4882C10.6269 12.4882 10.6517 12.4787 10.6706 12.4598L11.5738 11.5566C11.6116 11.5188 11.6116 11.4575 11.5738 11.4197Z" fill="#000080"/>
<path d="M13.4534 12.323L12.5501 11.4197C12.5123 11.3819 12.451 11.3819 12.4132 11.4197C12.3754 11.4575 12.3754 11.5188 12.4132 11.5566L13.3165 12.4598C13.3354 12.4787 13.3602 12.4882 13.3849 12.4882C13.4097 12.4882 13.4345 12.4787 13.4534 12.4598C13.4912 12.422 13.4912 12.3608 13.4534 12.323Z" fill="#000080"/>
<path d="M11.5738 10.4434L10.6706 9.54016C10.6328 9.50236 10.5715 9.50236 10.5337 9.54016C10.4959 9.57795 10.4959 9.63923 10.5337 9.67701L11.437 10.5803C11.4559 10.5992 11.4807 10.6086 11.5054 10.6086C11.5302 10.6086 11.555 10.5992 11.5738 10.5803C11.6116 10.5425 11.6116 10.4812 11.5738 10.4434Z" fill="#000080"/>
<path d="M12.7954 9.09218C12.746 9.07175 12.6894 9.09523 12.669 9.14462L12.1808 10.3251C12.1604 10.3745 12.1839 10.4311 12.2333 10.4515C12.2454 10.4565 12.2579 10.4589 12.2702 10.4589C12.3082 10.4589 12.3443 10.4364 12.3597 10.3991L12.8478 9.21859C12.8683 9.16921 12.8448 9.11261 12.7954 9.09218Z" fill="#000080"/>
<path d="M11.7796 11.5485C11.7302 11.5281 11.6736 11.5516 11.6532 11.6009L11.1651 12.7814C11.1447 12.8308 11.1681 12.8874 11.2175 12.9078C11.2296 12.9128 11.2421 12.9152 11.2545 12.9152C11.2925 12.9152 11.3285 12.8927 11.3439 12.8554L11.8321 11.6749C11.8525 11.6255 11.829 11.5689 11.7796 11.5485Z" fill="#000080"/>
<path d="M13.8619 11.6625L12.6814 11.1744C12.632 11.1539 12.5754 11.1774 12.555 11.2268C12.5346 11.2762 12.558 11.3328 12.6074 11.3532L13.7879 11.8414C13.8 11.8464 13.8125 11.8487 13.8248 11.8487C13.8628 11.8487 13.8989 11.8262 13.9143 11.7889C13.9347 11.7395 13.9112 11.6829 13.8619 11.6625Z" fill="#000080"/>
<path d="M11.4056 10.6468L10.2251 10.1586C10.1757 10.1382 10.1191 10.1617 10.0987 10.2111C10.0783 10.2605 10.1017 10.3171 10.1511 10.3375L11.3316 10.8256C11.3437 10.8306 11.3562 10.833 11.3685 10.833C11.4065 10.833 11.4426 10.8105 11.458 10.7732C11.4784 10.7238 11.4549 10.6672 11.4056 10.6468Z" fill="#000080"/>
<path d="M13.9073 10.2063C13.8869 10.157 13.8302 10.1336 13.7809 10.154L12.601 10.6436C12.5516 10.6641 12.5282 10.7207 12.5487 10.7701C12.5641 10.8073 12.6001 10.8298 12.6381 10.8298C12.6505 10.8298 12.663 10.8274 12.6751 10.8224L13.855 10.3328C13.9044 10.3123 13.9278 10.2557 13.9073 10.2063Z" fill="#000080"/>
<path d="M11.4522 11.225C11.4318 11.1756 11.3751 11.1522 11.3258 11.1727L10.1459 11.6623C10.0965 11.6827 10.0731 11.7394 10.0936 11.7887C10.109 11.826 10.1451 11.8484 10.183 11.8484C10.1954 11.8484 10.2079 11.8461 10.2201 11.841L11.3999 11.3515C11.4493 11.331 11.4727 11.2744 11.4522 11.225Z" fill="#000080"/>
<path d="M12.8439 12.778L12.3544 11.5981C12.3339 11.5487 12.2773 11.5253 12.2279 11.5458C12.1786 11.5662 12.1551 11.6229 12.1756 11.6722L12.6652 12.8521C12.6806 12.8894 12.7166 12.9118 12.7546 12.9118C12.767 12.9118 12.7795 12.9095 12.7916 12.9044C12.841 12.8839 12.8644 12.8273 12.8439 12.778Z" fill="#000080"/>
<path d="M11.8254 10.3228L11.3358 9.14294C11.3154 9.09356 11.2587 9.07015 11.2094 9.09064C11.16 9.11112 11.1366 9.16775 11.1571 9.21711L11.6466 10.397C11.6621 10.4342 11.6981 10.4567 11.736 10.4567C11.7484 10.4567 11.761 10.4543 11.7731 10.4493C11.8225 10.4288 11.8459 10.3722 11.8254 10.3228Z" fill="#000080"/>
<circle cx="12.0001" cy="11" r="0.264" fill="#000080"/>
</g>
<defs>
<clipPath id="clip0_2_69">
<rect width="24" height="24" fill="white"/>
</clipPath>
</defs>
</svg>
